<svg version="1.1" id="Layer_1" xmlns="http://www.w3.org/2000/svg" xmlns:xlink="http://www.w3.org/1999/xlink" x="0px" y="0px"
	 width="100%" viewBox="0 0 1024 1024" enable-background="new 0 0 1024 1024" xml:space="preserve">
<path fill="#000000" opacity="1.000000" stroke="none" 
	d="
M864.468628,1025.000000 
	C864.786133,1023.256042 866.201721,1022.821960 868.026001,1022.686829 
	C883.902588,1021.510559 898.943420,1016.819458 913.589294,1011.002991 
	C937.386047,1001.552429 958.304382,987.394653 976.066772,969.091309 
	C986.218994,958.629944 994.379272,946.380737 1001.643555,933.612732 
	C1012.125183,915.189636 1018.308838,895.313477 1022.260681,874.649292 
	C1022.969910,870.940308 1022.271851,866.957886 1024.746826,863.274109 
	C1025.000000,916.926758 1025.000000,970.853516 1025.000000,1025.000000 
	C971.645996,1025.000000 918.291626,1025.000000 864.468628,1025.000000 
z"/>
<path fill="#000000" opacity="1.000000" stroke="none" 
	d="
M1.000000,866.468628 
	C2.534865,866.638245 3.151035,867.749939 3.350251,869.446411 
	C8.607993,914.220581 29.020178,951.118896 62.608536,980.619934 
	C86.909630,1001.963806 115.391922,1015.165161 147.301880,1021.202332 
	C151.989212,1022.089172 157.283463,1021.213074 161.756516,1024.692627 
	C108.406792,1025.000000 54.813580,1025.000000 1.000000,1025.000000 
	C1.000000,972.312622 1.000000,919.625000 1.000000,866.468628 
z"/>
<path fill="#000000" opacity="1.000000" stroke="none" 
	d="
M1025.000000,162.531342 
	C1023.308411,161.398773 1022.944275,159.243958 1022.716797,157.110229 
	C1019.868652,130.395325 1010.882385,105.930672 996.244873,83.418022 
	C989.988281,73.795258 983.401306,64.464157 975.256226,56.374069 
	C956.206909,37.453312 934.529297,22.565880 909.164673,13.190331 
	C897.747192,8.970088 885.926270,6.463486 874.202087,3.483060 
	C871.258911,2.734885 867.800781,4.660846 865.146057,1.372042 
	C918.260803,1.000000 971.521545,1.000000 1025.000000,1.000000 
	C1025.000000,54.687366 1025.000000,108.375023 1025.000000,162.531342 
z"/>
<path fill="#000000" opacity="1.000000" stroke="none" 
	d="
M160.531342,1.000000 
	C160.430084,2.650845 159.165756,3.124213 157.534378,3.320971 
	C126.362030,7.080573 98.424042,18.605417 73.081322,37.214836 
	C42.832298,59.426998 22.274235,88.374062 10.344643,123.714607 
	C6.792078,134.238815 3.992577,144.941452 3.223721,156.085114 
	C3.130412,157.437515 2.874489,158.737625 1.349685,159.816864 
	C1.000000,107.072762 1.000000,54.145523 1.000000,1.000000 
	C54.020695,1.000000 107.041687,1.000000 160.531342,1.000000 
z"/>
<path fill="#000000" opacity="1.000000" stroke="none" 
	d="
M336.144440,453.058105 
	C339.178711,470.015656 342.151642,486.548706 345.105499,503.085175 
	C346.188599,509.148712 346.017487,509.344299 339.973511,509.358429 
	C334.307770,509.371674 328.641602,509.329407 322.976349,509.384399 
	C320.400238,509.409363 319.093933,508.398285 318.625977,505.715607 
	C314.738708,483.429688 310.729095,461.165131 306.778229,438.890289 
	C303.322021,419.403961 299.906006,399.910492 296.450928,380.423981 
	C290.208069,345.214233 284.023895,309.993622 277.603027,274.816284 
	C276.798462,270.408173 278.921844,269.364624 282.248138,268.271942 
	C318.462769,256.375793 354.680023,244.486298 390.842224,232.431992 
	C429.537354,219.533325 468.188141,206.500992 506.817230,193.405899 
	C511.112610,191.949799 514.924133,191.791443 519.349854,193.310089 
	C589.750427,217.467636 660.436218,240.773666 731.179993,263.903931 
	C736.086426,265.508148 740.960388,267.216248 745.893555,268.732300 
	C749.162964,269.737030 750.167664,271.380066 749.500488,274.998077 
	C743.982117,304.925507 738.631653,334.884430 733.351501,364.855133 
	C726.598877,403.183472 719.960632,441.531982 713.269470,479.871155 
	C711.839539,488.064667 710.296814,496.240021 708.997314,504.454010 
	C708.370789,508.414398 706.535217,510.252747 702.367676,510.068817 
	C697.379333,509.848633 692.371887,510.079437 687.372742,510.079254 
	C681.170837,510.079010 680.725952,509.540436 681.824524,503.447601 
	C685.809875,481.345184 689.856384,459.253571 693.777893,437.139832 
	C699.093567,407.164185 704.312073,377.171265 709.578796,347.186920 
	C712.715088,329.331024 715.670349,311.439545 719.144165,293.649445 
	C720.002319,289.254517 718.684448,287.754303 714.869446,286.503784 
	C662.185486,269.234314 609.524902,251.893280 556.884033,234.492767 
	C543.450562,230.052322 530.089722,225.389481 516.736511,220.711792 
	C514.562439,219.950195 512.699280,219.913605 510.496887,220.651535 
	C454.300201,239.480179 398.083374,258.248779 341.859589,276.996429 
	C331.751190,280.367004 321.627930,283.700592 311.446075,286.838928 
	C308.111420,287.866760 306.954285,289.422455 307.591370,292.989136 
	C316.979919,345.548859 326.262878,398.127472 335.578339,450.700256 
	C335.694153,451.354034 335.907623,451.990479 336.144440,453.058105 
z"/>
<path fill="#000000" opacity="1.000000" stroke="none" 
	d="
M576.122437,360.713898 
	C584.017761,363.165710 591.528625,365.506958 599.968079,368.137634 
	C596.823792,371.864563 594.604614,374.716339 592.157715,377.357086 
	C581.633667,388.715027 571.030945,400.000153 560.488281,411.340973 
	C558.859375,413.093201 557.003723,414.394043 554.728577,415.132050 
	C542.067383,419.239258 529.383179,423.278534 516.769226,427.526489 
	C513.097046,428.763153 509.859711,427.613983 506.569244,426.555664 
	C476.005585,416.725647 445.112244,408.010193 414.252655,399.180450 
	C413.653961,399.009094 412.982269,399.092865 411.595764,399.016174 
	C411.595764,407.181000 411.622925,415.126770 411.571869,423.071991 
	C411.562195,424.581757 412.456024,425.509613 413.244324,426.569153 
	C415.235931,429.246094 415.655212,432.234863 413.751373,434.940857 
	C412.127350,437.249176 412.572845,439.227570 413.455200,441.470428 
	C416.026520,448.006348 417.678345,454.759583 418.535156,461.747284 
	C418.928436,464.954712 417.670593,466.026031 414.745911,465.990143 
	C410.249939,465.935028 405.753143,465.882935 401.257202,465.911621 
	C397.649384,465.934662 396.716675,464.357361 397.397125,460.855988 
	C398.574463,454.797882 399.920441,448.818726 402.227386,443.078583 
	C402.909180,441.382202 404.340149,439.409760 403.955322,437.952759 
	C400.731873,425.748047 406.846466,413.856537 404.900116,401.647064 
	C404.286469,397.797638 403.615082,395.805420 399.585266,394.803955 
	C390.425171,392.527496 381.296295,390.035248 372.440796,386.713226 
	C372.676544,384.088745 374.761871,384.282745 376.163971,383.849487 
	C420.033173,370.293427 463.925690,356.812714 507.790314,343.241974 
	C511.417297,342.119873 514.750549,341.953217 518.467224,343.115814 
	C537.516907,349.074585 556.640320,354.797791 576.122437,360.713898 
z"/>
<path fill="#000000" opacity="1.000000" stroke="none" 
	d="
M439.288147,473.548737 
	C438.600830,470.323792 436.923950,467.649811 437.541046,464.636108 
	C439.133514,464.104034 439.545959,465.302002 440.020447,466.030884 
	C449.540436,480.654968 467.045166,484.417145 484.444824,477.000946 
	C499.323486,470.659180 512.010986,460.845398 524.490173,450.844666 
	C559.750488,422.587250 590.225403,389.527100 619.550293,355.346344 
	C622.110596,352.362061 625.109436,349.655243 627.032227,345.792480 
	C620.186768,342.282288 612.737671,340.824738 604.767639,336.119690 
	C629.711426,327.248627 653.312744,318.855011 678.676208,309.834686 
	C673.736755,335.344452 669.087524,359.355225 664.260620,384.283783 
	C658.386658,378.296967 656.031494,371.319092 651.625793,366.013702 
	C649.687988,365.651611 649.071960,367.026123 648.249390,367.994568 
	C621.591736,399.380463 593.862183,429.754547 563.296753,457.419647 
	C544.997314,473.982605 526.244324,489.981873 504.009949,501.228241 
	C495.570892,505.496735 486.642212,508.321777 477.113800,507.650299 
	C460.183197,506.457153 449.638214,496.261993 442.431366,481.848969 
	C441.173676,479.333740 440.414948,476.569031 439.288147,473.548737 
z"/>
<path fill="#000000" opacity="1.000000" stroke="none" 
	d="
M596.067505,739.113403 
	C571.792847,756.506104 546.860474,772.157532 520.961121,786.316528 
	C515.471436,789.317627 511.140564,789.178162 505.762848,786.204529 
	C462.475220,762.268372 421.252380,735.463318 385.480286,700.948425 
	C384.244415,699.755981 382.332825,698.905518 382.548828,696.631409 
	C383.918488,695.170898 385.683319,695.745056 387.255249,695.731506 
	C395.750488,695.658081 404.251068,695.833679 412.740295,695.591614 
	C416.654999,695.480042 419.684753,696.648438 422.723114,699.090637 
	C449.902466,720.937073 478.388031,740.862183 509.078827,757.546570 
	C512.069885,759.172607 514.250488,759.301208 517.261414,757.646729 
	C547.858765,740.833618 576.551086,721.197083 603.806091,699.439941 
	C607.138367,696.779785 610.444031,695.572266 614.689514,695.598450 
	C623.175110,695.650757 631.678772,696.078918 640.157532,695.221680 
	C641.457397,695.090332 642.839722,694.954041 644.834717,696.935364 
	C630.411987,712.928650 613.596863,726.152893 596.067505,739.113403 
z"/>
<path fill="#000000" opacity="1.000000" stroke="none" 
	d="
M494.587219,240.381378 
	C519.507874,230.322052 545.616821,241.099319 555.841614,265.363739 
	C565.482361,288.242432 554.734192,315.505859 532.154358,325.447998 
	C509.173157,335.566833 481.772980,325.532623 471.515594,303.241486 
	C460.239258,278.735840 469.839661,252.243347 494.587219,240.381378 
M536.574219,314.649078 
	C553.647522,302.597870 557.978699,274.920349 544.906921,261.675323 
	C539.768799,265.796753 534.632629,269.916656 528.832642,274.569031 
	C536.189026,273.579163 542.192627,270.546478 548.942200,271.304077 
	C543.258911,275.715881 536.613220,277.841095 528.658875,280.629639 
	C537.021912,280.903320 544.058105,280.246246 550.595703,283.489502 
	C543.889526,286.060272 536.805176,284.855621 529.575012,285.779144 
	C536.315735,288.691315 543.287231,290.065338 548.677734,294.818512 
	C541.954590,295.676605 535.981140,292.394714 528.907715,291.750580 
	C534.425842,296.387177 540.192078,299.703003 543.707886,305.554474 
	C536.461426,303.527588 530.726990,298.922180 524.144531,294.661469 
	C527.219360,299.116272 530.095276,302.955688 532.594666,307.026337 
	C534.100281,309.478455 536.714966,311.581085 535.393677,314.744476 
	C529.993958,310.864868 526.467163,305.116913 520.993774,299.563965 
	C522.263428,304.355988 523.275696,307.842072 524.105225,311.371155 
	C526.466614,321.416199 527.006226,321.618835 535.624573,315.320831 
	C535.757935,315.223358 535.873230,315.101105 536.574219,314.649078 
M482.744446,259.940277 
	C489.518127,262.249695 494.961365,266.887177 501.805969,271.195129 
	C497.453217,264.621796 493.104767,259.270874 490.845001,252.650696 
	C496.869476,255.407394 499.604614,261.473358 504.602509,266.116547 
	C503.645905,259.407043 500.662384,253.761520 501.781891,247.470856 
	C506.238373,253.278137 507.793274,260.256866 510.833496,268.090179 
	C510.833496,263.145477 510.674744,259.544800 510.877899,255.964676 
	C511.083405,252.342865 511.095978,248.609543 513.219727,244.123581 
	C516.235107,252.605377 514.911072,260.201752 515.442139,268.078278 
	C518.302979,260.672882 519.730164,253.195908 524.795471,245.827713 
	C526.046753,253.710266 521.836060,259.333588 521.685486,266.230194 
	C526.415344,261.083801 529.395203,255.251907 535.549744,252.582718 
	C533.497864,258.974121 529.073547,263.913116 525.699524,270.037811 
	C531.999329,266.171906 537.847290,262.583252 543.658875,259.016876 
	C539.606995,251.590439 530.833069,246.169525 519.527527,243.764328 
	C505.870697,240.858932 487.857391,248.649338 481.459076,260.400513 
	C479.028717,262.744476 477.468201,265.556122 476.501282,269.350189 
	C483.224792,271.110413 489.693878,272.804016 496.162994,274.497620 
	C493.971985,271.843201 491.351135,270.049377 489.162811,267.829193 
	C486.690338,265.320770 482.711273,264.139771 482.744446,259.940277 
M486.940765,280.617188 
	C489.500763,280.478638 492.060730,280.340088 496.026154,280.125488 
	C488.290009,277.397705 481.975220,274.830017 475.324127,271.502563 
	C472.827118,283.637177 473.470734,294.425049 480.407806,304.812256 
	C486.064117,300.627716 490.376312,295.793793 495.667267,292.075287 
	C489.380310,292.680420 483.611633,295.291443 477.201996,293.967133 
	C483.254547,289.948181 489.973328,287.646454 496.888397,285.637726 
	C489.626373,285.041595 482.268982,285.688507 474.532776,282.986023 
	C478.515991,279.689026 482.501312,281.283020 486.940765,280.617188 
M503.161133,305.114105 
	C503.570526,303.602142 503.979889,302.090149 504.724548,299.339935 
	C499.692963,304.973511 496.291687,310.382141 490.861145,313.852966 
	C491.444305,307.142822 497.348938,303.105408 499.269012,296.194244 
	C493.103607,300.102142 487.739410,303.502228 482.110291,307.070190 
	C486.923615,313.170685 492.032501,317.562408 499.064240,319.712860 
	C501.416718,314.987213 501.782227,310.302948 503.161133,305.114105 
M510.728455,310.539764 
	C510.728455,307.576355 510.728455,304.612915 510.728455,301.649506 
	C510.351776,301.646973 509.975098,301.644409 509.598419,301.641876 
	C507.201599,307.907715 504.804779,314.173553 502.327240,320.650452 
	C505.457123,322.046783 508.058777,323.274658 511.289886,322.028442 
	C511.104034,318.397247 510.927216,314.943054 510.728455,310.539764 
M514.994507,313.101898 
	C514.545593,316.138184 513.560608,319.193024 515.171265,322.438263 
	C518.042664,322.069672 520.881042,322.377563 523.290405,320.122131 
	C520.807861,313.701599 518.360352,307.371735 515.912842,301.041870 
	C515.643921,301.109589 515.375000,301.177307 515.106079,301.245026 
	C515.106079,304.892761 515.106079,308.540497 514.994507,313.101898 
z"/>
<path fill="#000000" opacity="1.000000" stroke="none" 
	d="
M579.943420,537.702271 
	C586.004150,536.667297 588.659607,539.028931 590.285767,544.527771 
	C595.001526,560.473755 600.269165,576.257874 605.431335,592.069275 
	C606.628479,595.736084 605.858398,597.552490 601.754517,597.272949 
	C600.759277,597.205078 599.756226,597.249146 598.756775,597.248169 
	C589.783081,597.239380 590.496399,598.231079 588.494690,589.545715 
	C587.724548,586.203857 586.098633,584.611450 582.616333,585.075500 
	C581.634338,585.206360 580.620056,585.094482 579.620605,585.095703 
	C571.002991,585.106567 570.849304,585.058777 568.365356,593.024658 
	C567.329773,596.345825 565.556213,597.445801 562.212952,597.347656 
	C555.555420,597.152161 548.884644,597.151733 542.226746,597.335938 
	C538.982117,597.425720 537.019958,596.232300 535.432922,593.418701 
	C532.197510,587.682861 528.644165,582.126343 525.186035,576.437073 
	C519.666626,579.706299 519.578979,584.508667 519.369507,589.375122 
	C519.260803,591.900330 520.724304,595.563599 517.851868,596.662537 
	C514.033447,598.123413 509.640625,597.766907 505.572449,596.788940 
	C503.883148,596.382751 503.896057,594.451355 503.894714,592.957153 
	C503.879578,575.966553 503.906372,558.976013 503.892883,541.985413 
	C503.890656,539.188354 504.890411,537.660095 507.983551,537.673950 
	C521.459595,537.734375 519.209351,536.599854 519.309387,548.101868 
	C519.333801,550.907227 519.313049,553.713074 519.313049,556.943359 
	C521.844116,556.498962 522.692261,554.796997 523.730835,553.479248 
	C525.791992,550.864014 527.716736,548.141296 529.697266,545.462524 
	C535.781799,537.232910 540.928345,535.583862 551.736511,538.607605 
	C550.671021,542.052063 547.917542,544.330322 545.989441,547.109802 
	C543.997681,549.980896 541.802490,552.710327 539.711487,555.513000 
	C532.983887,564.530457 532.482117,561.478149 539.341858,571.883484 
	C543.344910,577.955627 547.439026,583.967773 551.708313,590.329041 
	C554.668701,586.981628 555.053711,583.273682 556.193542,579.890930 
	C559.967712,568.689636 563.661316,557.460205 567.549744,546.298706 
	C571.011475,536.362000 568.613708,537.888306 579.943420,537.702271 
M581.706421,563.752075 
	C580.796021,561.247375 581.099243,558.277283 578.503662,555.289612 
	C577.044250,561.117493 575.801208,566.081421 574.549927,571.078308 
	C582.746521,572.659363 583.510803,571.886536 581.706421,563.752075 
z"/>
<path fill="#000000" opacity="1.000000" stroke="none" 
	d="
M477.599670,422.395020 
	C486.576385,425.117493 495.314667,427.329132 503.731201,430.417603 
	C510.596283,432.936737 516.907532,432.350647 523.565857,429.989227 
	C530.236084,427.623627 536.915039,425.101044 543.855164,423.935577 
	C545.030518,426.035614 543.611206,426.797180 542.727173,427.622864 
	C528.586060,440.830536 513.522400,452.854645 497.436981,463.648712 
	C491.741425,467.470703 486.454193,468.572906 479.738617,466.387756 
	C467.033783,462.253601 454.527893,457.910095 443.311829,450.421265 
	C439.344635,447.772369 437.490356,444.546356 437.714996,439.619720 
	C438.086487,431.473175 437.939453,423.299835 437.884949,415.138611 
	C437.862915,411.838623 438.843170,410.520721 442.357483,411.621826 
	C453.952209,415.254578 465.596741,418.728394 477.599670,422.395020 
z"/>
<path fill="#000000" opacity="1.000000" stroke="none" 
	d="
M414.342041,628.001526 
	C415.704498,636.156555 414.026428,642.998108 408.012360,648.340576 
	C405.850494,650.260986 406.407806,651.962891 407.541473,654.050232 
	C410.767487,659.989929 413.885284,665.988342 417.291138,672.427856 
	C411.942993,673.875671 407.179688,673.308411 402.466614,673.066284 
	C400.339294,672.957031 399.631409,670.898987 398.752258,669.348206 
	C396.290863,665.005981 393.919891,660.611938 391.561188,656.212524 
	C390.429932,654.102417 388.945190,652.721558 386.375916,653.418030 
	C383.981689,654.067017 384.263611,656.118896 384.222961,657.912109 
	C384.136200,661.740662 384.087555,665.570923 384.091217,669.400391 
	C384.093811,672.111267 382.792145,673.119690 380.116272,673.332275 
	C368.966370,674.218323 368.670898,674.012939 368.662689,662.701904 
	C368.651947,647.881409 368.761261,633.059631 368.575775,618.241394 
	C368.524902,614.175171 369.801880,612.444092 373.980347,612.700012 
	C382.925568,613.247864 391.942017,611.862610 400.845825,613.959534 
	C408.279266,615.710205 412.875305,620.022583 414.342041,628.001526 
M384.629761,626.617981 
	C383.807220,628.355225 384.170624,630.207153 384.165894,632.007202 
	C384.145538,639.754700 385.994995,641.194946 393.748688,639.585022 
	C397.167999,638.875061 398.801056,636.720764 398.924622,633.286804 
	C399.045227,629.936157 397.897278,627.251404 394.439178,626.507385 
	C391.425079,625.858948 388.316803,625.042297 384.629761,626.617981 
z"/>
<path fill="#000000" opacity="1.000000" stroke="none" 
	d="
M478.538269,537.825989 
	C486.377197,539.259705 492.915771,542.024353 495.147858,550.012085 
	C497.553772,558.621765 496.420013,566.603943 489.041931,572.609863 
	C486.859253,574.386658 487.454285,575.927429 488.476288,577.772766 
	C490.973053,582.281067 493.528839,586.757874 495.945496,591.308655 
	C496.763794,592.849426 498.259064,594.228638 497.576813,596.809937 
	C493.022247,597.718567 488.269165,597.354126 483.548859,597.043823 
	C481.652649,596.919067 480.992584,595.072632 480.211243,593.630676 
	C477.915131,589.393372 475.585571,585.169800 473.451355,580.850830 
	C472.331421,578.584351 471.144653,576.660400 468.246887,577.390930 
	C465.161255,578.168884 466.396606,580.832825 466.152710,582.796326 
	C466.010345,583.942505 466.152588,585.121826 466.130280,586.285522 
	C465.883575,599.154358 466.571686,597.011047 453.955017,597.342712 
	C451.184998,597.415527 450.000671,596.017700 450.010864,593.401917 
	C450.079071,575.944824 449.710968,558.485657 450.472198,541.030945 
	C450.610138,537.868469 452.228668,537.615723 454.640533,537.643188 
	C462.456177,537.731995 470.272675,537.741394 478.538269,537.825989 
M466.037079,560.204468 
	C466.015717,562.497131 466.161438,564.421631 469.309540,564.640625 
	C474.410431,564.995361 479.293640,563.070618 480.320068,559.658020 
	C481.113434,557.020447 481.143250,554.255310 478.726715,552.346313 
	C475.467621,549.771606 471.505798,549.710388 467.807922,550.667175 
	C465.100128,551.367798 466.345490,554.314941 466.081787,556.319641 
	C465.953033,557.298767 466.047943,558.307373 466.037079,560.204468 
z"/>
<path fill="#000000" opacity="1.000000" stroke="none" 
	d="
M639.312317,538.150330 
	C646.881775,539.592896 652.853210,542.672729 654.988953,550.159546 
	C657.394348,558.591125 656.304443,566.437744 649.162231,572.413025 
	C647.121460,574.120361 647.260437,575.572571 648.391846,577.541504 
	C650.796448,581.726318 653.189575,585.920532 655.455750,590.180908 
	C656.508850,592.160645 658.353821,593.881714 657.940796,596.929871 
	C653.378906,597.696106 648.762756,597.293579 644.177490,597.133057 
	C642.044983,597.058472 641.202942,595.134216 640.328674,593.563721 
	C638.143311,589.638367 636.078064,585.646179 633.967346,581.679382 
	C632.730042,579.353882 631.834473,576.430725 628.264343,577.374573 
	C624.945618,578.251953 626.300598,581.162231 626.125732,583.260803 
	C625.849609,586.574158 625.939758,589.916260 625.799194,593.242981 
	C625.682007,596.017029 624.366028,597.213135 621.384216,597.343506 
	C609.905151,597.845337 609.928528,597.947693 609.973389,586.688782 
	C610.029785,572.530457 610.012024,558.371765 610.105286,544.213745 
	C610.148193,537.699768 610.233704,537.650208 616.921997,537.701294 
	C624.244873,537.757141 631.566895,537.918030 639.312317,538.150330 
M625.346069,557.499390 
	C625.394287,564.676819 627.292908,566.092529 634.403442,564.253113 
	C638.629456,563.159912 641.188232,559.654236 640.505371,555.893066 
	C639.729736,551.620544 636.013794,549.949341 629.295654,550.206055 
	C624.366760,550.394409 625.654846,553.865295 625.346069,557.499390 
z"/>
<path fill="#000000" opacity="1.000000" stroke="none" 
	d="
M548.928345,674.357544 
	C530.073242,674.197205 521.883240,664.794067 522.153870,644.081055 
	C522.268982,635.269104 522.613647,626.457947 522.585815,617.647278 
	C522.574402,614.019653 523.803101,612.696960 527.501404,612.654663 
	C538.127441,612.533142 538.120911,612.398499 538.158752,623.035156 
	C538.191895,632.351868 538.091553,641.672302 538.329956,650.983948 
	C538.487793,657.148865 542.509155,660.957153 547.991455,660.735901 
	C552.125305,660.569092 554.841248,658.672424 555.986572,654.545837 
	C556.622559,652.254517 556.720215,649.958374 556.722229,647.630920 
	C556.731018,637.648132 556.824097,627.663757 556.671692,617.683289 
	C556.616577,614.072266 557.850708,612.576111 561.574097,612.663818 
	C573.349487,612.941284 572.107910,611.440063 572.048767,623.044067 
	C571.996277,633.345764 572.599243,643.655396 571.450623,653.953735 
	C570.021179,666.769653 562.547485,673.823486 548.928345,674.357544 
z"/>
<path fill="#000000" opacity="1.000000" stroke="none" 
	d="
M442.000366,612.691772 
	C448.156616,612.678467 453.818481,612.799133 459.468475,612.593872 
	C462.607941,612.479797 464.242218,613.439392 464.077118,616.761658 
	C463.994659,618.421204 464.037720,620.089172 464.076080,621.752136 
	C464.150024,624.960266 462.514252,626.170288 459.423462,626.104980 
	C454.267609,625.995911 449.107269,626.111694 443.950653,626.022949 
	C441.062714,625.973328 439.199585,626.585693 439.178375,630.108459 
	C439.157745,633.534241 440.130524,635.574707 443.865967,635.569397 
	C447.858795,635.563782 451.857178,635.762207 455.843048,635.609131 
	C459.940460,635.451782 460.556793,637.898132 460.289642,641.069092 
	C460.021484,644.251221 461.775574,648.642273 456.121338,648.913391 
	C452.967133,649.064758 449.801025,648.969849 446.640259,648.981567 
	C442.743866,648.996033 438.971222,648.474792 439.090881,654.637573 
	C439.202545,660.389343 442.637238,660.039185 446.404419,660.029175 
	C450.896790,660.017212 455.392883,660.166931 459.880768,660.029846 
	C465.633850,659.854065 464.947235,663.794495 465.087067,667.518677 
	C465.227020,671.244812 464.519226,673.480103 459.981354,673.374023 
	C449.670929,673.133057 439.349213,673.195251 429.035706,673.360718 
	C425.290405,673.420837 423.663147,672.348511 423.705597,668.286865 
	C423.881256,651.483398 423.867035,634.676575 423.734833,617.872437 
	C423.703949,613.949280 425.175262,612.484436 429.024048,612.669678 
	C433.173706,612.869507 437.341248,612.698792 442.000366,612.691772 
z"/>
<path fill="#000000" opacity="1.000000" stroke="none" 
	d="
M407.318176,595.537354 
	C402.287476,598.850708 397.289062,596.664368 391.953400,597.196777 
	C392.172272,591.782288 394.101288,587.693054 395.434692,583.483643 
	C399.705292,570.001709 404.196838,556.588440 408.334045,543.066345 
	C409.534668,539.142273 411.269409,537.395996 415.642517,537.600281 
	C429.904877,538.266418 426.940643,534.872375 431.691681,549.488525 
	C436.214478,563.402649 440.877228,577.271729 445.332947,591.207031 
	C447.092102,596.708801 446.553741,597.252014 440.850433,597.282349 
	C439.684967,597.288513 438.488800,597.100891 437.359009,597.299561 
	C431.929260,598.254211 429.216492,595.870422 428.698059,590.547424 
	C428.287262,586.329407 426.101990,584.791809 421.716248,584.908630 
	C411.023102,585.193298 411.017517,584.983582 407.318176,595.537354 
M420.242889,557.868103 
	C419.848450,557.232239 419.836212,556.202026 418.355713,556.376343 
	C416.742889,561.065308 415.459198,565.940430 414.609863,570.917053 
	C422.182281,572.923157 423.318970,571.983215 421.928009,565.309631 
	C421.455688,563.043518 420.968262,560.780579 420.242889,557.868103 
z"/>
<path fill="#000000" opacity="1.000000" stroke="none" 
	d="
M508.632629,641.236511 
	C515.330811,646.118408 516.388062,652.760376 514.865112,659.763672 
	C513.123230,667.773315 507.266113,672.102661 499.533234,673.673584 
	C490.448914,675.518982 481.700958,674.198608 473.387604,669.950806 
	C470.073761,668.257629 468.989044,666.133301 471.021637,662.777771 
	C471.708069,661.644592 472.302185,660.433655 472.770844,659.194824 
	C473.916016,656.167603 475.645203,655.568481 478.532013,657.206299 
	C482.937317,659.705750 487.719391,661.054932 492.851105,660.915283 
	C495.670837,660.838562 498.499420,660.264587 499.245270,657.222290 
	C500.075226,653.836853 497.053192,652.683838 494.696625,651.589478 
	C490.025085,649.420288 485.172180,647.636841 480.529297,645.412048 
	C473.361023,641.977173 470.504730,635.864624 471.130310,628.232727 
	C471.751648,620.652649 476.132385,615.746399 483.275818,613.342590 
	C492.974640,610.078613 502.300873,611.561218 511.380829,615.740112 
	C513.569092,616.747253 514.341248,618.303040 513.234375,620.575134 
	C512.651794,621.770935 511.892944,622.912964 511.513855,624.169861 
	C510.300598,628.192139 508.244690,629.470032 504.119995,627.483215 
	C500.375671,625.679626 496.279877,624.605896 492.006653,625.389954 
	C490.031708,625.752441 487.881531,626.242981 487.414093,628.589966 
	C486.931671,631.012085 488.777222,632.124878 490.604218,633.082764 
	C496.349518,636.094849 502.810944,637.508972 508.632629,641.236511 
z"/>
<path fill="#000000" opacity="1.000000" stroke="none" 
	d="
M365.138794,573.981934 
	C362.638763,572.927002 360.474213,572.059448 358.356110,571.090210 
	C349.776672,567.164734 345.796906,560.599976 346.840118,552.167053 
	C347.821014,544.238159 354.126251,538.053833 363.038391,536.875427 
	C370.735779,535.857605 378.260986,536.562683 385.439484,540.066589 
	C388.711945,541.663818 389.645142,543.510681 387.840973,546.677551 
	C387.430023,547.398865 386.995178,548.144592 386.784607,548.935791 
	C385.647278,553.210083 383.602814,554.568420 379.289734,552.199524 
	C375.933105,550.356018 372.030762,549.863586 368.125793,550.079285 
	C365.724701,550.211914 363.184906,550.369507 362.554077,553.221313 
	C361.891968,556.214417 364.486115,557.266296 366.512360,558.234741 
	C371.759003,560.742310 377.541748,561.995789 382.579559,565.030029 
	C393.363037,571.524902 393.840271,586.703613 383.465302,593.901489 
	C380.402374,596.026489 376.959717,597.401611 373.328339,597.926331 
	C364.697235,599.173462 356.453522,597.867798 348.681244,593.694397 
	C345.564178,592.020691 344.465790,590.097046 346.721588,587.000916 
	C347.011932,586.602417 347.196228,586.123047 347.406830,585.670532 
	C350.330933,579.388062 350.329956,579.387634 356.607666,582.245239 
	C360.604126,584.064392 364.753174,585.157776 369.186218,584.797180 
	C371.608307,584.600098 374.032043,584.074219 374.539276,581.260254 
	C375.003693,578.683716 373.011292,577.344971 371.044067,576.352966 
	C369.270630,575.458679 367.350861,574.854614 365.138794,573.981934 
z"/>
<path fill="#000000" opacity="1.000000" stroke="none" 
	d="
M477.291504,822.166077 
	C467.278198,837.353943 452.984619,844.886963 435.720673,847.189392 
	C427.624573,848.269104 419.489075,847.660522 411.403473,846.393127 
	C407.639679,845.803284 406.774994,844.409973 409.097931,841.186951 
	C424.612671,819.661011 444.824982,807.906921 472.096497,810.784790 
	C482.211914,811.852234 482.798462,813.099487 477.291504,822.166077 
z"/>
<path fill="#000000" opacity="1.000000" stroke="none" 
	d="
M559.848328,834.206421 
	C554.288574,829.551758 549.755615,824.510376 546.738647,818.235657 
	C544.662598,813.917908 545.249146,812.519958 549.828186,811.674561 
	C574.578674,807.104675 595.081055,814.629028 611.460999,833.583984 
	C614.066101,836.598694 616.368652,839.877686 618.748108,843.081238 
	C619.099487,843.554382 619.100647,844.287659 619.478516,845.707031 
	C598.010315,849.325378 577.937805,848.211792 559.848328,834.206421 
z"/>
<path fill="#000000" opacity="1.000000" stroke="none" 
	d="
M609.691833,801.504028 
	C635.335876,792.138550 663.344604,803.717468 674.548340,817.184814 
	C670.523254,820.862061 665.465393,822.616638 660.530579,824.277466 
	C638.305298,831.757446 617.550049,829.610229 599.103516,814.098145 
	C594.642334,810.346497 594.752136,809.200684 599.903931,806.210571 
	C602.913940,804.463501 606.171204,803.142334 609.691833,801.504028 
z"/>
<path fill="#000000" opacity="1.000000" stroke="none" 
	d="
M583.571289,788.729004 
	C586.389038,764.005920 600.141235,747.960754 621.598511,737.710815 
	C624.357239,736.392944 626.177185,736.900940 626.162354,740.349915 
	C626.054565,765.376770 618.807617,786.941162 596.326782,800.890625 
	C592.885986,803.025757 588.431213,806.601379 585.054810,804.386230 
	C581.824219,802.266663 583.072205,796.764526 583.165894,792.645874 
	C583.192322,791.485352 583.407959,790.329102 583.571289,788.729004 
z"/>
<path fill="#000000" opacity="1.000000" stroke="none" 
	d="
M398.190155,827.440063 
	C382.279663,830.001953 368.093689,825.743347 354.389526,819.146606 
	C350.625610,817.334717 352.969269,815.382751 354.718262,813.893188 
	C364.184906,805.830872 375.107147,800.761841 387.388062,798.924927 
	C400.733917,796.928894 413.579498,798.464661 425.516815,805.289734 
	C431.656433,808.799927 431.761444,809.684998 426.670624,814.371216 
	C418.697357,821.710449 409.359650,826.025024 398.190155,827.440063 
z"/>
<path fill="#000000" opacity="1.000000" stroke="none" 
	d="
M403.506104,764.281799 
	C401.207642,756.294800 400.548370,748.531250 400.681580,740.661377 
	C400.742706,737.049133 402.340302,736.222473 405.446960,737.713257 
	C430.967987,749.960449 445.326019,772.463623 443.246704,801.248474 
	C442.966797,805.123840 441.094330,805.569580 437.870209,804.324097 
	C422.101257,798.232422 411.937775,786.715393 405.768707,771.321838 
	C404.904419,769.165161 404.322205,766.895447 403.506104,764.281799 
z"/>
<path fill="#000000" opacity="1.000000" stroke="none" 
	d="
M395.887695,770.823730 
	C394.783234,774.894897 393.831604,778.591736 392.773865,782.258057 
	C391.758179,785.778442 390.031952,786.170959 386.978027,783.969299 
	C372.811615,773.756592 365.582336,759.605713 363.925323,742.623657 
	C363.007446,733.216370 363.025604,723.675354 365.500092,714.363037 
	C365.920166,712.782104 365.932556,711.030945 367.576111,710.056946 
	C386.173737,720.646851 400.104645,746.576599 395.887695,770.823730 
z"/>
<path fill="#000000" opacity="1.000000" stroke="none" 
	d="
M638.769897,730.884827 
	C644.188232,722.446655 650.357178,715.228638 658.725525,709.635925 
	C662.090088,714.076050 662.337402,719.015808 662.889221,723.635071 
	C664.902527,740.487488 662.114685,756.426697 652.628052,770.827942 
	C649.302490,775.876526 645.041138,780.031433 640.225098,783.683533 
	C636.978271,786.145691 635.135132,785.786743 633.781372,781.707214 
	C627.949097,764.131409 629.753357,747.351135 638.769897,730.884827 
z"/>
<path fill="#000000" opacity="1.000000" stroke="none" 
	d="
M683.565979,799.930359 
	C670.760620,801.408264 658.897156,799.791016 647.775269,793.938538 
	C642.672668,791.253418 642.342712,789.862549 646.513855,785.965637 
	C661.742798,771.737610 679.868652,768.141479 699.825989,772.056519 
	C707.011169,773.466064 713.927551,775.782349 720.768127,780.840271 
	C710.050598,791.033447 697.981506,797.210938 683.565979,799.930359 
z"/>
<path fill="#000000" opacity="1.000000" stroke="none" 
	d="
M311.259705,785.816162 
	C309.377136,784.247742 307.110962,783.549316 306.481567,780.850342 
	C309.484161,777.397888 313.798065,775.960754 317.931763,774.577148 
	C340.137115,767.144836 360.838501,769.282227 379.098053,785.021423 
	C384.223450,789.439270 383.953735,790.552551 378.034668,793.760681 
	C359.559174,803.774353 341.227814,801.760803 323.075836,792.955811 
	C319.058594,791.007202 315.381165,788.358154 311.259705,785.816162 
z"/>
<path fill="#000000" opacity="1.000000" stroke="none" 
	d="
M669.615845,715.938049 
	C672.017700,703.460449 677.681030,693.048340 685.338074,683.604187 
	C687.448181,681.001648 689.486023,679.922974 691.155457,683.861633 
	C699.597290,703.778259 701.385254,723.651733 690.494873,743.353638 
	C688.304993,747.315308 685.275574,750.626648 682.134521,753.865723 
	C679.485535,756.597290 677.652222,756.658691 675.768066,753.025269 
	C669.763123,741.445068 667.303894,729.317444 669.615845,715.938049 
z"/>
<path fill="#000000" opacity="1.000000" stroke="none" 
	d="
M349.214172,755.313782 
	C345.904541,757.110596 344.732819,754.363770 343.327423,752.833984 
	C332.763336,741.334656 328.341339,727.581970 329.058716,712.135010 
	C329.485626,702.943420 331.474945,694.033447 335.024902,685.526550 
	C337.077789,680.607300 338.280365,680.481323 341.771759,684.489136 
	C360.152832,705.588989 363.148560,733.033508 349.214172,755.313782 
z"/>
<path fill="#000000" opacity="1.000000" stroke="none" 
	d="
M339.858459,762.015930 
	C321.367493,770.065796 304.435608,766.126343 288.277008,756.458679 
	C280.701721,751.926331 274.334717,745.926880 268.796478,738.565918 
	C272.677368,734.966675 277.348419,734.837219 281.618073,734.303162 
	C303.592682,731.553955 322.875061,736.718628 337.443756,754.489685 
	C339.064850,756.467163 341.888123,758.394409 339.858459,762.015930 
z"/>
<path fill="#000000" opacity="1.000000" stroke="none" 
	d="
M732.029175,760.175964 
	C718.385010,766.776733 704.658203,768.249878 690.478638,763.699097 
	C685.333374,762.047852 684.914062,760.771851 688.115845,756.270325 
	C698.536682,741.619324 713.332336,735.127258 730.773804,733.836304 
	C738.285095,733.280334 745.748840,733.995789 753.083130,735.710510 
	C758.131836,736.890808 758.494141,737.920898 755.236816,741.814392 
	C748.863831,749.431824 741.404175,755.721680 732.029175,760.175964 
z"/>
<path fill="#000000" opacity="1.000000" stroke="none" 
	d="
M700.328369,691.379089 
	C698.635681,677.045776 702.932678,664.649353 709.892334,652.940735 
	C711.230164,650.689941 712.952332,648.862366 715.118042,652.026672 
	C726.585571,668.781921 733.564331,695.242371 718.746094,716.724548 
	C714.958679,722.215271 713.669312,722.221436 709.830017,716.780090 
	C704.537598,709.279175 701.540894,700.897766 700.328369,691.379089 
z"/>
<path fill="#000000" opacity="1.000000" stroke="none" 
	d="
M643.474243,672.795288 
	C629.641846,674.154480 629.647217,674.154480 629.647400,660.897583 
	C629.647583,651.068542 629.505249,641.237122 629.685608,631.411560 
	C629.756287,627.563049 628.434570,625.773254 624.519653,626.075378 
	C623.362671,626.164612 622.189331,626.036255 621.023438,626.016235 
	C612.897827,625.876709 611.154846,623.618896 612.747498,615.611206 
	C613.158691,613.543640 614.327026,612.799561 616.190247,612.795166 
	C630.017151,612.762695 643.844116,612.766052 657.670898,612.727112 
	C660.194580,612.720032 661.321167,613.924438 661.273926,616.395447 
	C661.245239,617.893921 661.157288,619.408691 661.325256,620.890137 
	C661.782898,624.926147 659.843994,626.029846 656.075745,626.064880 
	C645.186584,626.166321 645.188721,626.285767 645.173462,637.441101 
	C645.160095,647.270264 645.168945,657.099548 645.107361,666.928406 
	C645.095215,668.871643 645.574463,670.981689 643.474243,672.795288 
z"/>
<path fill="#000000" opacity="1.000000" stroke="none" 
	d="
M313.120148,650.228638 
	C318.972534,654.295959 321.045563,660.669373 323.158020,666.634033 
	C329.566864,684.729492 327.749664,702.010742 316.298889,717.844055 
	C313.457397,721.773132 312.335541,721.792053 309.335785,717.651245 
	C300.067413,704.857422 297.578461,690.648926 301.255402,675.428223 
	C303.446411,666.358582 306.474976,657.552795 313.120148,650.228638 
z"/>
<path fill="#000000" opacity="1.000000" stroke="none" 
	d="
M760.011108,720.148315 
	C749.471436,725.912231 738.732422,728.660889 727.085388,726.145752 
	C720.709717,724.768921 720.168823,723.624512 723.567810,717.839844 
	C731.837646,703.765991 744.462891,695.955139 760.216553,692.761230 
	C766.774048,691.431702 773.392822,691.166931 780.044739,691.667542 
	C784.792480,692.024780 785.439148,693.167297 782.875671,697.176575 
	C776.998047,706.369019 770.047058,714.546448 760.011108,720.148315 
z"/>
<path fill="#000000" opacity="1.000000" stroke="none" 
	d="
M302.221191,715.861572 
	C307.247925,724.359192 306.955963,725.107056 297.458801,726.454834 
	C282.038696,728.643127 269.083710,722.989197 257.585968,713.312012 
	C251.201385,707.938293 246.049683,701.500977 242.259216,694.064636 
	C255.242508,684.406250 289.538513,696.935303 302.221191,715.861572 
z"/>
<path fill="#000000" opacity="1.000000" stroke="none" 
	d="
M542.610229,829.590454 
	C543.564270,831.566223 544.457092,833.179993 545.029480,834.900513 
	C546.978943,840.760864 545.730225,844.428040 541.312073,846.234985 
	C535.966248,848.421387 530.067200,846.533752 527.507324,841.785828 
	C526.248291,839.450806 525.309875,836.896057 523.776245,834.764587 
	C518.557983,827.512512 511.799500,826.791626 505.044037,832.546387 
	C502.192566,834.975342 500.329987,838.046326 498.839294,841.461792 
	C496.604187,846.582886 490.866150,848.771790 485.459808,846.791809 
	C480.973816,845.148926 479.580658,841.033630 481.485443,835.051392 
	C486.148804,820.405334 505.141266,810.309937 520.764038,814.420227 
	C529.674011,816.764343 537.424377,821.072388 542.610229,829.590454 
z"/>
<path fill="#000000" opacity="1.000000" stroke="none" 
	d="
M542.815552,483.355652 
	C560.190247,481.488770 576.091797,476.585907 591.163330,466.083038 
	C591.891663,473.528320 589.467834,478.790497 585.369629,483.513916 
	C577.548584,492.528259 567.118958,497.416168 556.175415,501.078247 
	C542.022217,505.814423 527.361633,507.878723 512.396240,507.375244 
	C511.297546,507.338287 510.035950,507.685028 509.207581,506.489716 
	C509.066071,504.942535 510.388123,504.622467 511.330627,504.086823 
	C520.763794,498.725739 529.600098,492.502502 538.025024,485.683136 
	C539.338745,484.619781 540.703125,483.704498 542.815552,483.355652 
z"/>
<path fill="#000000" opacity="1.000000" stroke="none" 
	d="
M610.971069,673.289001 
	C602.986206,673.293762 595.494019,673.168396 588.009827,673.358276 
	C584.272705,673.453003 582.697083,672.317810 582.591675,668.299561 
	C582.146851,651.331482 582.265503,634.373108 582.631470,617.407654 
	C582.704773,614.009399 583.849731,612.750122 587.291382,612.647278 
	C598.221802,612.320862 598.210938,612.209534 598.196411,623.291748 
	C598.183594,633.110474 598.188232,642.929138 598.188843,652.747864 
	C598.189270,659.732117 598.191956,659.727112 604.943298,659.747009 
	C609.103638,659.759277 613.265808,659.873840 617.423828,659.785339 
	C620.797607,659.713623 622.097595,661.147095 622.184326,664.560059 
	C622.406128,673.286255 622.530640,673.283081 610.971069,673.289001 
z"/>
<path fill="#000000" opacity="1.000000" stroke="none" 
	d="
M276.867493,655.096741 
	C277.887787,640.618286 283.842041,628.790833 293.018524,618.415527 
	C294.898193,616.290283 296.911652,614.736755 298.485016,618.743896 
	C305.474762,636.545776 306.581879,654.013062 295.278290,670.657349 
	C292.481140,674.776062 289.115234,678.420654 284.436829,681.430359 
	C278.233002,673.656372 277.415314,664.645813 276.867493,655.096741 
z"/>
<path fill="#000000" opacity="1.000000" stroke="none" 
	d="
M744.874634,635.291382 
	C750.936096,648.867676 751.480042,662.256226 746.065613,675.762390 
	C743.735168,681.575928 742.117798,681.964722 737.702942,677.630371 
	C723.190369,663.382446 720.131104,646.282837 725.464600,627.205688 
	C726.523865,623.416748 727.346619,619.487000 730.324341,615.786621 
	C737.320068,620.713928 740.997742,627.844788 744.874634,635.291382 
z"/>
<path fill="#000000" opacity="1.000000" stroke="none" 
	d="
M778.944580,650.800537 
	C785.676392,647.910645 792.393372,646.927612 799.267578,646.793701 
	C802.074280,646.738953 803.354431,647.700439 802.081116,650.755188 
	C794.098328,669.906372 781.025757,682.885010 759.675171,685.797974 
	C756.080444,686.288452 751.392578,687.324463 749.310242,684.393738 
	C747.153992,681.359070 750.169189,677.496399 751.770996,674.276611 
	C757.474182,662.813110 766.743652,655.385254 778.944580,650.800537 
z"/>
<path fill="#000000" opacity="1.000000" stroke="none" 
	d="
M250.338715,680.827942 
	C238.146286,674.063660 230.404083,663.962524 225.118057,651.697571 
	C223.697754,648.402100 224.014420,646.834839 228.093674,646.721680 
	C247.553848,646.182312 269.976746,660.519409 277.014069,678.179260 
	C279.879120,685.369019 279.280396,686.306152 271.749451,686.273621 
	C264.295624,686.241394 257.267883,684.466003 250.338715,680.827942 
z"/>
<path fill="#000000" opacity="1.000000" stroke="none" 
	d="
M765.481934,610.788452 
	C768.331848,621.286133 767.906494,631.195496 764.140259,641.017273 
	C762.622070,644.976501 760.685852,645.398132 757.559204,642.785034 
	C744.939880,632.238464 739.988464,618.531494 741.239136,602.462891 
	C741.750427,595.893982 742.928284,589.357422 746.655579,582.370117 
	C755.786499,590.369629 762.054077,599.340576 765.481934,610.788452 
z"/>
<path fill="#000000" opacity="1.000000" stroke="none" 
	d="
M274.525330,637.501221 
	C271.676971,640.449158 269.336334,645.007263 265.494995,644.098694 
	C261.863281,643.239624 261.794739,638.154968 260.956665,634.721863 
	C256.418640,616.133423 263.379486,598.357056 277.084595,584.984497 
	C279.306183,582.816772 281.005402,583.462341 281.896393,586.182983 
	C287.846497,604.350830 288.410767,621.793396 274.525330,637.501221 
z"/>
<path fill="#000000" opacity="1.000000" stroke="none" 
	d="
M809.558289,614.428955 
	C803.714783,630.741333 793.325989,641.720703 776.411438,645.621216 
	C768.947754,647.342407 767.416870,646.073608 768.950867,638.703247 
	C772.258118,622.813660 782.280029,612.320740 796.776794,605.855957 
	C800.543457,604.176208 804.564148,602.980652 808.566467,601.941467 
	C811.876404,601.082092 813.331543,602.587402 812.260559,606.020203 
	C811.422241,608.706970 810.551270,611.383545 809.558289,614.428955 
z"/>
<path fill="#000000" opacity="1.000000" stroke="none" 
	d="
M225.223007,629.714111 
	C219.701508,622.600159 216.843811,614.637024 214.337921,606.498901 
	C213.247192,602.956726 214.241776,601.413147 218.102570,601.937988 
	C236.957504,604.501038 255.126129,621.842163 258.237946,640.308472 
	C259.206726,646.057434 258.399994,646.777649 252.725174,645.990173 
	C241.395355,644.417847 232.494247,638.815613 225.223007,629.714111 
z"/>
<path fill="#000000" opacity="1.000000" stroke="none" 
	d="
M771.228027,566.375305 
	C773.530212,563.072510 775.583191,560.040405 777.783569,557.119263 
	C779.333496,555.061829 781.073425,554.679138 782.271545,557.440491 
	C789.556274,574.229492 791.890869,593.718811 779.423706,610.015381 
	C774.576172,616.351929 772.932800,616.214111 769.407715,608.880798 
	C762.518799,594.549805 763.949646,580.502563 771.228027,566.375305 
z"/>
<path fill="#000000" opacity="1.000000" stroke="none" 
	d="
M244.646210,557.136047 
	C246.017731,554.946655 247.254517,555.633240 248.408081,556.873657 
	C262.576538,572.109131 265.864655,595.155029 256.332550,611.298523 
	C253.671997,615.804443 252.705170,615.869995 249.067108,611.825195 
	C239.837158,601.563293 237.597473,589.261597 239.172913,576.054993 
	C239.940750,569.618469 241.824265,563.394470 244.646210,557.136047 
z"/>
<path fill="#000000" opacity="1.000000" stroke="none" 
	d="
M680.048584,566.000000 
	C680.064026,574.806274 679.921814,583.117188 680.162170,591.416992 
	C680.294128,595.972046 678.613525,597.494446 674.036621,597.374573 
	C664.714600,597.130615 664.723022,597.356506 664.726013,587.801025 
	C664.730652,573.015442 664.831604,558.228333 664.629944,543.445374 
	C664.572998,539.268616 665.602295,537.455200 670.171326,537.606628 
	C680.726257,537.956421 680.147827,536.362549 680.043579,547.558105 
	C679.987915,553.538147 680.044556,559.519348 680.048584,566.000000 
z"/>
<path fill="#000000" opacity="1.000000" stroke="none" 
	d="
M557.988831,469.980011 
	C568.922607,459.886993 579.585388,450.025085 590.466309,439.961395 
	C594.933228,455.419159 591.779968,463.036163 578.383301,469.419495 
	C570.731262,473.065521 562.827393,476.114471 554.407715,477.576874 
	C553.434692,477.745850 552.460205,478.131439 551.334900,477.148804 
	C552.032837,473.608032 555.537476,472.479645 557.988831,469.980011 
z"/>
<path fill="#000000" opacity="1.000000" stroke="none" 
	d="
M456.707703,462.267822 
	C463.332031,465.225677 469.622955,468.015289 475.913879,470.804901 
	C475.885773,471.330139 475.857697,471.855347 475.829590,472.380585 
	C469.993195,475.469513 463.667694,475.012360 457.433044,473.137817 
	C448.243988,470.375000 439.798004,460.832764 439.448822,452.720337 
	C445.294464,455.959717 450.834351,459.029633 456.707703,462.267822 
z"/>
<path fill="#000000" opacity="1.000000" stroke="none" 
	d="
M642.818237,383.680969 
	C646.498291,381.841705 650.107422,382.576691 655.369812,386.338226 
	C649.390381,389.085236 643.506836,390.065308 636.829773,392.004608 
	C638.222473,387.860657 640.688538,386.114136 642.818237,383.680969 
z"/>
</svg>